<svg id="visual" viewBox="0 0 900 675" width="900" height="675" xmlns="http://www.w3.org/2000/svg" xmlns:xlink="http://www.w3.org/1999/xlink" version="1.1"><rect x="0" y="0" width="900" height="675" fill="#5072A7"></rect><defs><linearGradient id="grad1_0" x1="25%" y1="100%" x2="100%" y2="0%"><stop offset="23.333333333333336%" stop-color="#5072a7" stop-opacity="1"></stop><stop offset="76.66666666666666%" stop-color="#5072a7" stop-opacity="1"></stop></linearGradient></defs><defs><linearGradient id="grad2_0" x1="0%" y1="100%" x2="75%" y2="0%"><stop offset="23.333333333333336%" stop-color="#5072a7" stop-opacity="1"></stop><stop offset="76.66666666666666%" stop-color="#5072a7" stop-opacity="1"></stop></linearGradient></defs><g transform="translate(900, 675)"><path d="M-506.2 0C-492.8 -40.9 -479.3 -81.7 -472.3 -126.6C-465.4 -171.4 -464.9 -220.3 -438.4 -253.1C-411.9 -286 -359.3 -302.8 -316.1 -316.1C-272.8 -329.3 -238.9 -339 -209.5 -362.9C-180.1 -386.7 -155 -424.8 -120.9 -451.1C-86.7 -477.4 -43.3 -491.8 0 -506.2L0 0Z" fill="#E0F1FF"></path></g><g transform="translate(0, 0)"><path d="M506.3 0C461.7 33 417.1 65.9 408.6 109.5C400.1 153.1 427.6 207.3 413.1 238.5C398.6 269.7 342.1 278 312.5 312.5C283 347.1 280.5 408 253.1 438.4C225.8 468.9 173.7 469 127.3 475.2C81 481.5 40.5 493.9 0 506.3L0 0Z" fill="#E0F1FF"></path></g></svg>