<svg id="visual" viewBox="0 0 900 675" width="900" height="675" xmlns="http://www.w3.org/2000/svg" xmlns:xlink="http://www.w3.org/1999/xlink" version="1.1"><rect x="0" y="0" width="900" height="675" fill="#5072A7"></rect><defs><linearGradient id="grad1_0" x1="25%" y1="100%" x2="100%" y2="0%"><stop offset="23.333333333333336%" stop-color="#e0f1ff" stop-opacity="1"></stop><stop offset="76.66666666666666%" stop-color="#e0f1ff" stop-opacity="1"></stop></linearGradient></defs><defs><linearGradient id="grad1_1" x1="25%" y1="100%" x2="100%" y2="0%"><stop offset="23.333333333333336%" stop-color="#e0f1ff" stop-opacity="1"></stop><stop offset="76.66666666666666%" stop-color="#5072a7" stop-opacity="1"></stop></linearGradient></defs><defs><linearGradient id="grad2_0" x1="0%" y1="100%" x2="75%" y2="0%"><stop offset="23.333333333333336%" stop-color="#e0f1ff" stop-opacity="1"></stop><stop offset="76.66666666666666%" stop-color="#e0f1ff" stop-opacity="1"></stop></linearGradient></defs><defs><linearGradient id="grad2_1" x1="0%" y1="100%" x2="75%" y2="0%"><stop offset="23.333333333333336%" stop-color="#5072a7" stop-opacity="1"></stop><stop offset="76.66666666666666%" stop-color="#e0f1ff" stop-opacity="1"></stop></linearGradient></defs><g transform="translate(900, 675)"><path d="M-506.2 0C-484.6 -38.6 -462.9 -77.2 -453 -121.4C-443.2 -165.5 -445.2 -215.3 -416.6 -240.5C-388 -265.7 -328.8 -266.5 -301.2 -301.2C-273.7 -335.9 -277.8 -404.5 -253.1 -438.4C-228.4 -472.4 -174.9 -471.6 -127.9 -477.2C-80.9 -482.7 -40.4 -494.5 0 -506.2L0 0Z" fill="#93b1d3"></path><path d="M-253.1 0C-242.3 -19.3 -231.4 -38.6 -226.5 -60.7C-221.6 -82.8 -222.6 -107.6 -208.3 -120.3C-194 -132.9 -164.4 -133.3 -150.6 -150.6C-136.8 -168 -138.9 -202.2 -126.6 -219.2C-114.2 -236.2 -87.4 -235.8 -63.9 -238.6C-40.4 -241.3 -20.2 -247.2 0 -253.1L0 0Z" fill="#e0f1ff"></path></g><g transform="translate(0, 0)"><path d="M506.3 0C462.6 32.3 418.9 64.7 416.3 111.6C413.8 158.4 452.4 219.8 438.4 253.1C424.5 286.4 358 291.6 318.2 318.2C278.4 344.8 265.4 392.8 233 403.6C200.6 414.4 148.9 388 106.9 398.9C64.8 409.8 32.4 458 0 506.3L0 0Z" fill="#93b1d3"></path><path d="M253.1 0C231.3 16.2 209.4 32.3 208.2 55.8C206.9 79.2 226.2 109.9 219.2 126.6C212.2 143.2 179 145.8 159.1 159.1C139.2 172.4 132.7 196.4 116.5 201.8C100.3 207.2 74.5 194 53.4 199.5C32.4 204.9 16.2 229 0 253.1L0 0Z" fill="#e0f1ff"></path></g></svg>