<svg id="visual" viewBox="0 0 900 675" width="900" height="675" xmlns="http://www.w3.org/2000/svg" xmlns:xlink="http://www.w3.org/1999/xlink" version="1.1"><rect x="0" y="0" width="900" height="675" fill="#5072A7"></rect><defs><linearGradient id="grad1_0" x1="25%" y1="100%" x2="100%" y2="0%"><stop offset="23.333333333333336%" stop-color="#e0f1ff" stop-opacity="1"></stop><stop offset="76.66666666666666%" stop-color="#e0f1ff" stop-opacity="1"></stop></linearGradient></defs><defs><linearGradient id="grad1_1" x1="25%" y1="100%" x2="100%" y2="0%"><stop offset="23.333333333333336%" stop-color="#e0f1ff" stop-opacity="1"></stop><stop offset="76.66666666666666%" stop-color="#93b1d3" stop-opacity="1"></stop></linearGradient></defs><defs><linearGradient id="grad1_2" x1="25%" y1="100%" x2="100%" y2="0%"><stop offset="23.333333333333336%" stop-color="#5072a7" stop-opacity="1"></stop><stop offset="76.66666666666666%" stop-color="#93b1d3" stop-opacity="1"></stop></linearGradient></defs><defs><linearGradient id="grad2_0" x1="0%" y1="100%" x2="75%" y2="0%"><stop offset="23.333333333333336%" stop-color="#e0f1ff" stop-opacity="1"></stop><stop offset="76.66666666666666%" stop-color="#e0f1ff" stop-opacity="1"></stop></linearGradient></defs><defs><linearGradient id="grad2_1" x1="0%" y1="100%" x2="75%" y2="0%"><stop offset="23.333333333333336%" stop-color="#93b1d3" stop-opacity="1"></stop><stop offset="76.66666666666666%" stop-color="#e0f1ff" stop-opacity="1"></stop></linearGradient></defs><defs><linearGradient id="grad2_2" x1="0%" y1="100%" x2="75%" y2="0%"><stop offset="23.333333333333336%" stop-color="#93b1d3" stop-opacity="1"></stop><stop offset="76.66666666666666%" stop-color="#5072a7" stop-opacity="1"></stop></linearGradient></defs><g transform="translate(900, 675)"><path d="M-506.2 0C-503.4 -44.3 -500.6 -88.6 -489 -131C-477.4 -173.4 -457.1 -214 -433 -250C-408.9 -286 -380.9 -317.6 -349.3 -349.3C-317.7 -381 -282.4 -413 -240.5 -416.6C-198.6 -420.2 -149.9 -395.5 -108.7 -405.7C-67.5 -415.9 -33.8 -461.1 0 -506.2L0 0Z" fill="#7091bd"></path><path d="M-337.5 0C-335.6 -29.5 -333.7 -59.1 -326 -87.4C-318.3 -115.6 -304.8 -142.6 -288.7 -166.7C-272.6 -190.7 -253.9 -211.7 -232.9 -232.9C-211.8 -254 -188.3 -275.3 -160.3 -277.7C-132.4 -280.1 -99.9 -263.6 -72.5 -270.5C-45 -277.3 -22.5 -307.4 0 -337.5L0 0Z" fill="#b8d1e9"></path><path d="M-168.7 0C-167.8 -14.8 -166.9 -29.5 -163 -43.7C-159.1 -57.8 -152.4 -71.3 -144.3 -83.3C-136.3 -95.3 -127 -105.9 -116.4 -116.4C-105.9 -127 -94.1 -137.7 -80.2 -138.9C-66.2 -140.1 -50 -131.8 -36.2 -135.2C-22.5 -138.6 -11.3 -153.7 0 -168.7L0 0Z" fill="#e0f1ff"></path></g><g transform="translate(0, 0)"><path d="M506.3 0C456 31.4 405.8 62.9 401.8 107.7C397.9 152.5 440.2 210.6 438.4 253.1C436.6 295.7 390.6 322.7 353.6 353.6C316.5 384.4 288.3 419.3 250 433C211.7 446.8 163.4 439.5 120.1 448.2C76.8 456.9 38.4 481.6 0 506.3L0 0Z" fill="#7091bd"></path><path d="M337.5 0C304 21 270.5 41.9 267.9 71.8C265.3 101.6 293.5 140.4 292.3 168.7C291.1 197.1 260.4 215.1 235.7 235.7C211 256.3 192.2 279.5 166.7 288.7C141.2 297.8 109 293 80.1 298.8C51.2 304.6 25.6 321 0 337.5L0 0Z" fill="#b8d1e9"></path><path d="M168.8 0C152 10.5 135.3 21 133.9 35.9C132.6 50.8 146.7 70.2 146.1 84.4C145.5 98.6 130.2 107.6 117.9 117.9C105.5 128.1 96.1 139.8 83.3 144.3C70.6 148.9 54.5 146.5 40 149.4C25.6 152.3 12.8 160.5 0 168.8L0 0Z" fill="#e0f1ff"></path></g></svg>