<svg id="visual" viewBox="0 0 900 675" width="900" height="675" xmlns="http://www.w3.org/2000/svg" xmlns:xlink="http://www.w3.org/1999/xlink" version="1.1"><rect x="0" y="0" width="900" height="675" fill="#5072A7"></rect><defs><linearGradient id="grad1_0" x1="25%" y1="100%" x2="100%" y2="0%"><stop offset="23.333333333333336%" stop-color="#e0f1ff" stop-opacity="1"></stop><stop offset="76.66666666666666%" stop-color="#e0f1ff" stop-opacity="1"></stop></linearGradient></defs><defs><linearGradient id="grad1_1" x1="25%" y1="100%" x2="100%" y2="0%"><stop offset="23.333333333333336%" stop-color="#e0f1ff" stop-opacity="1"></stop><stop offset="76.66666666666666%" stop-color="#abc6e1" stop-opacity="1"></stop></linearGradient></defs><defs><linearGradient id="grad1_2" x1="25%" y1="100%" x2="100%" y2="0%"><stop offset="23.333333333333336%" stop-color="#7b9bc4" stop-opacity="1"></stop><stop offset="76.66666666666666%" stop-color="#abc6e1" stop-opacity="1"></stop></linearGradient></defs><defs><linearGradient id="grad1_3" x1="25%" y1="100%" x2="100%" y2="0%"><stop offset="23.333333333333336%" stop-color="#7b9bc4" stop-opacity="1"></stop><stop offset="76.66666666666666%" stop-color="#5072a7" stop-opacity="1"></stop></linearGradient></defs><defs><linearGradient id="grad2_0" x1="0%" y1="100%" x2="75%" y2="0%"><stop offset="23.333333333333336%" stop-color="#e0f1ff" stop-opacity="1"></stop><stop offset="76.66666666666666%" stop-color="#e0f1ff" stop-opacity="1"></stop></linearGradient></defs><defs><linearGradient id="grad2_1" x1="0%" y1="100%" x2="75%" y2="0%"><stop offset="23.333333333333336%" stop-color="#abc6e1" stop-opacity="1"></stop><stop offset="76.66666666666666%" stop-color="#e0f1ff" stop-opacity="1"></stop></linearGradient></defs><defs><linearGradient id="grad2_2" x1="0%" y1="100%" x2="75%" y2="0%"><stop offset="23.333333333333336%" stop-color="#abc6e1" stop-opacity="1"></stop><stop offset="76.66666666666666%" stop-color="#7b9bc4" stop-opacity="1"></stop></linearGradient></defs><defs><linearGradient id="grad2_3" x1="0%" y1="100%" x2="75%" y2="0%"><stop offset="23.333333333333336%" stop-color="#5072a7" stop-opacity="1"></stop><stop offset="76.66666666666666%" stop-color="#7b9bc4" stop-opacity="1"></stop></linearGradient></defs><g transform="translate(900, 675)"><path d="M-506.2 0C-462.9 -32.8 -419.5 -65.6 -412.5 -110.5C-405.4 -155.4 -434.7 -212.4 -414 -239C-393.2 -265.6 -322.3 -261.9 -288.5 -288.5C-254.7 -315.1 -258 -372 -238 -412.2C-218 -452.5 -174.6 -476.1 -131 -489C-87.5 -501.9 -43.7 -504.1 0 -506.2L0 0Z" fill="#6587b6"></path><path d="M-379.7 0C-347.1 -24.6 -314.6 -49.2 -309.3 -82.9C-304.1 -116.6 -326.1 -159.3 -310.5 -179.3C-294.9 -199.2 -241.7 -196.4 -216.4 -216.4C-191 -236.3 -193.5 -279 -178.5 -309.2C-163.5 -339.4 -130.9 -357.1 -98.3 -366.7C-65.6 -376.4 -32.8 -378.1 0 -379.7L0 0Z" fill="#93b1d3"></path><path d="M-253.1 0C-231.4 -16.4 -209.7 -32.8 -206.2 -55.3C-202.7 -77.7 -217.4 -106.2 -207 -119.5C-196.6 -132.8 -161.1 -131 -144.2 -144.2C-127.4 -157.5 -129 -186 -119 -206.1C-109 -226.2 -87.3 -238.1 -65.5 -244.5C-43.7 -250.9 -21.9 -252 0 -253.1L0 0Z" fill="#c5dbf0"></path><path d="M-126.6 0C-115.7 -8.2 -104.9 -16.4 -103.1 -27.6C-101.4 -38.9 -108.7 -53.1 -103.5 -59.8C-98.3 -66.4 -80.6 -65.5 -72.1 -72.1C-63.7 -78.8 -64.5 -93 -59.5 -103.1C-54.5 -113.1 -43.6 -119 -32.8 -122.2C-21.9 -125.5 -10.9 -126 0 -126.6L0 0Z" fill="#e0f1ff"></path></g><g transform="translate(0, 0)"><path d="M506.3 0C505.3 45.2 504.3 90.4 489 131C473.7 171.7 444.1 207.8 416.6 240.5C389 273.2 363.5 302.7 335.2 335.2C306.8 367.7 275.7 403.3 236 408.8C196.3 414.3 148.2 389.6 107.4 400.9C66.7 412.1 33.3 459.2 0 506.3L0 0Z" fill="#6587b6"></path><path d="M379.7 0C379 33.9 378.2 67.8 366.7 98.3C355.3 128.7 333.1 155.8 312.4 180.4C291.8 204.9 272.6 227 251.4 251.4C230.1 275.8 206.8 302.5 177 306.6C147.2 310.7 111.1 292.2 80.6 300.6C50 309.1 25 344.4 0 379.7L0 0Z" fill="#93b1d3"></path><path d="M253.1 0C252.6 22.6 252.1 45.2 244.5 65.5C236.9 85.8 222.1 103.9 208.3 120.2C194.5 136.6 181.8 151.3 167.6 167.6C153.4 183.8 137.8 201.6 118 204.4C98.2 207.1 74.1 194.8 53.7 200.4C33.3 206 16.7 229.6 0 253.1L0 0Z" fill="#c5dbf0"></path><path d="M126.6 0C126.3 11.3 126.1 22.6 122.2 32.8C118.4 42.9 111 51.9 104.1 60.1C97.3 68.3 90.9 75.7 83.8 83.8C76.7 91.9 68.9 100.8 59 102.2C49.1 103.6 37 97.4 26.9 100.2C16.7 103 8.3 114.8 0 126.6L0 0Z" fill="#e0f1ff"></path></g></svg>